<svg width="51" height="57" viewBox="0 0 51 57" version="1.1" xmlns="http://www.w3.org/2000/svg" xmlns:xlink="http://www.w3.org/1999/xlink">
<g id="Canvas" fill="none">
<g id="Logo">
<path d="M 33.8813 41.3975L 29.2171 41.3975L 25.4643 30.229L 21.7187 41.3975L 17.0901 41.3975L 10.6956 18.7397L 16.6629 18.7397L 19.6964 30.703L 23.4491 18.7397L 27.4938 18.7397L 31.2465 30.703L 34.28 18.7397L 40.2474 18.7397L 33.8813 41.3975Z" fill="#FFB500"/>
<path d="M 25.5 2.09149L 48.8637 15.2957L 48.8637 41.7043L 25.5 54.9155L 2.13627 41.7112L 2.13627 15.2957L 25.5 2.09149ZM 25.5 0C 25.1297 0 24.7594 0.0906311 24.4319 0.278865L 1.06814 13.4831C 0.405892 13.8596 0 14.5498 0 15.2957L 0 41.7043C 0 42.4502 0.405892 43.1404 1.06814 43.5169L 24.4319 56.7211C 24.7594 56.9094 25.1297 57 25.5 57C 25.8703 57 26.2406 56.9094 26.5681 56.7211L 49.9319 43.5169C 50.5941 43.1404 51 42.4502 51 41.7043L 51 15.2957C 51 14.5498 50.5941 13.8596 49.9319 13.4831L 26.5681 0.278865C 26.2406 0.0906311 25.8703 0 25.5 0Z" fill="#FFB500"/>
</g>
</g>
</svg>

